<svg id="visual" viewBox="0 0 1920 1080" width="1920" height="1080" xmlns="http://www.w3.org/2000/svg" xmlns:xlink="http://www.w3.org/1999/xlink" version="1.1"><path d="M0 817L274 817L274 859L549 859L549 845L823 845L823 879L1097 879L1097 856L1371 856L1371 813L1646 813L1646 848L1920 848L1920 884L1920 1081L1920 1081L1646 1081L1646 1081L1371 1081L1371 1081L1097 1081L1097 1081L823 1081L823 1081L549 1081L549 1081L274 1081L274 1081L0 1081Z" fill="#eb1c24"></path><path d="M0 914L274 914L274 955L549 955L549 907L823 907L823 926L1097 926L1097 903L1371 903L1371 893L1646 893L1646 913L1920 913L1920 955L1920 1081L1920 1081L1646 1081L1646 1081L1371 1081L1371 1081L1097 1081L1097 1081L823 1081L823 1081L549 1081L549 1081L274 1081L274 1081L0 1081Z" fill="#d7191f"></path><path d="M0 1023L274 1023L274 991L549 991L549 959L823 959L823 972L1097 972L1097 964L1371 964L1371 963L1646 963L1646 964L1920 964L1920 974L1920 1081L1920 1081L1646 1081L1646 1081L1371 1081L1371 1081L1097 1081L1097 1081L823 1081L823 1081L549 1081L549 1081L274 1081L274 1081L0 1081Z" fill="#c4151b"></path></svg>